<svg width="17" height="17" viewBox="0 0 17 17" fill="none" xmlns="http://www.w3.org/2000/svg">
<rect width="17" height="17" fill="white"/>
<path d="M5.33464 4.25071C6.07542 4.26988 6.50873 4.57085 6.8826 5.20494C7.0969 5.5684 7.32275 5.93854 7.54118 6.30039L9.04782 8.79656C9.1861 9.02211 9.44943 9.47859 9.60382 9.65031C9.95552 10.0541 10.4797 8.52561 10.4616 8.40088C10.3568 7.67796 9.5251 6.96795 9.38968 6.2386C9.30578 5.80078 9.40095 5.34762 9.65409 4.98064C10.1831 4.22564 11.3267 4.00961 12.082 4.55126C12.2346 4.66082 12.3677 4.79542 12.4752 4.94935C12.6318 5.17286 12.8103 5.50009 12.9554 5.74099L14.0139 7.51479L15.0332 9.22594C15.3445 9.74727 15.7418 10.2977 15.8415 10.8995C15.8611 11.0721 15.8526 11.2469 15.8159 11.4169C15.6182 12.3491 14.7302 12.9097 13.8044 12.6927C13.4774 12.6128 13.1795 12.4419 12.9455 12.2001C12.7391 11.9902 12.5411 11.6253 12.3776 11.3673C12.0328 10.8233 11.7151 10.2596 11.3763 9.71149C10.8877 10.4584 10.4552 11.3523 9.88182 12.0593C9.58217 12.4287 9.1285 12.6913 8.6471 12.7278C8.16713 12.7675 7.69163 12.6104 7.32973 12.2929C7.01321 12.0174 6.53158 11.1353 6.30045 10.7521L5.06927 8.71706C4.80104 8.27097 4.52991 7.82663 4.25586 7.38409C4.1184 7.16126 3.9008 6.82931 3.78596 6.60174C3.69382 6.41867 3.64027 6.21864 3.62865 6.01404C3.59748 5.58135 3.74351 5.15458 4.03323 4.8317C4.38209 4.4445 4.82331 4.27893 5.33464 4.25071Z" fill="black"/>
<path d="M2.77914 9.30932C3.72749 9.26739 4.52986 10.0031 4.5702 10.9514C4.61052 11.8999 3.8735 12.701 2.92503 12.7398C1.97879 12.7785 1.18 12.0436 1.13976 11.0974C1.09951 10.1512 1.83305 9.35117 2.77914 9.30932Z" fill="black"/>
</svg>
