<svg width="50" height="31" viewBox="0 0 50 31" fill="none" xmlns="http://www.w3.org/2000/svg">
<g clip-path="url(#clip0_1134_262)">
<path d="M40.2287 7.36896L31.474 5.28226L27.7643 20.8463L39.4373 23.6285L42.4514 10.9828L39.5332 10.2872L40.2287 7.36896ZM31.9377 3.33676L41.6652 5.65532L44.6288 10.4737L41.3828 24.0922C41.2598 24.6082 40.9369 25.0542 40.4851 25.3321C40.0333 25.61 39.4896 25.697 38.9736 25.574L27.3006 22.7918C26.7846 22.6688 26.3386 22.3459 26.0607 21.894C25.7828 21.4422 25.6958 20.8985 25.8188 20.3825L29.5285 4.81855C29.6515 4.30257 29.9744 3.85658 30.4262 3.57869C30.878 3.3008 31.4217 3.21377 31.9377 3.33676ZM31.7965 12.5552L39.5785 14.4101L39.1148 16.3556L31.3328 14.5007L31.7965 12.5552ZM30.8691 16.4462L38.6511 18.3011L38.1874 20.2466L30.4053 18.3917L30.8691 16.4462Z" fill="#3A3A3A"/>
</g>
<g clip-path="url(#clip1_1134_262)">
<path fill-rule="evenodd" clip-rule="evenodd" d="M14.4449 6.65403C14.4298 6.58946 14.3896 6.53354 14.3333 6.49856C14.277 6.46357 14.2091 6.4524 14.1445 6.46749L7.32822 8.06064C6.61802 8.22664 6.00284 8.66796 5.61803 9.28753C5.23321 9.90709 5.11028 10.6541 5.27627 11.3644L8.46258 24.9969C8.62857 25.7071 9.0699 26.3223 9.68946 26.7071C10.309 27.092 11.0561 27.2149 11.7663 27.0489L21.5039 24.773C22.2141 24.607 22.8292 24.1656 23.214 23.5461C23.5989 22.9265 23.7218 22.1794 23.5558 21.4692L21.3133 11.8748C21.2982 11.8103 21.2581 11.7543 21.2018 11.7194C21.1455 11.6844 21.0776 11.6732 21.013 11.6883L16.6311 12.7125C16.4374 12.7577 16.2336 12.7242 16.0647 12.6192C15.8957 12.5143 15.7753 12.3465 15.7301 12.1528L14.4449 6.65403ZM17.3942 15.9775C17.5879 15.9322 17.7916 15.9657 17.9606 16.0707C18.1296 16.1756 18.2499 16.3434 18.2952 16.5371C18.3405 16.7308 18.307 16.9345 18.202 17.1035C18.0971 17.2725 17.9293 17.3928 17.7356 17.4381L11.8931 18.8037C11.6994 18.8489 11.4956 18.8154 11.3266 18.7104C11.1577 18.6055 11.0373 18.4377 10.992 18.244C10.9468 18.0503 10.9803 17.8466 11.0853 17.6776C11.1902 17.5086 11.358 17.3883 11.5517 17.343L17.3942 15.9775ZM18.3046 19.8725C18.4983 19.8272 18.702 19.8607 18.871 19.9657C19.04 20.0706 19.1603 20.2384 19.2056 20.4321C19.2509 20.6258 19.2173 20.8295 19.1124 20.9985C19.0074 21.1675 18.8397 21.2878 18.646 21.3331L12.8034 22.6987C12.6097 22.7439 12.406 22.7104 12.237 22.6055C12.0681 22.5005 11.9477 22.3327 11.9024 22.1391C11.8571 21.9454 11.8907 21.7416 11.9956 21.5726C12.1006 21.4037 12.2683 21.2833 12.462 21.238L18.3046 19.8725Z" fill="#3A3A3A"/>
<path d="M15.9785 6.62794C15.9366 6.44876 16.0979 6.29091 16.2634 6.37035C16.4038 6.43816 16.5346 6.52466 16.6557 6.62986L20.5449 10.031C20.6329 10.109 20.5891 10.2466 20.4742 10.2734L17.2627 11.024C17.1982 11.0391 17.1303 11.0279 17.0739 10.993C17.0176 10.958 16.9775 10.902 16.9624 10.8375L15.9785 6.62794Z" fill="#3A3A3A"/>
</g>
<defs>
<clipPath id="clip0_1134_262">
<rect width="24" height="24" fill="white" transform="translate(26.5645) rotate(13.4064)"/>
</clipPath>
<clipPath id="clip1_1134_262">
<rect width="24" height="24" fill="white" transform="translate(0 7.46289) rotate(-13.1554)"/>
</clipPath>
</defs>
</svg>
